<svg xmlns="http://www.w3.org/2000/svg" viewBox="0 0 431.45 328.21"><defs><style>.cls-1{fill:#ebc862;}</style></defs><g id="Capa_2" data-name="Capa 2"><g id="Capa_1-2" data-name="Capa 1"><path class="cls-1" d="M424.76,45.39,377.94,7s-13.38-7-18.4-7-13.38,1.75-35.12,17.46-51.84,31.42-51.84,31.42-5-8.73-25.08,0-26.76,14-36.79,22.7-23.41,34.91-36.79,22.69S160.54,89,155.52,78.56s-18.39-14-16.72-21,3.34-1.74,1.67-7-3.34-8.73-13.38-12.22S108.7,41.9,108.7,34.92V19.2l-10,3.5S78.34,30.28,75.12,40.45c-3.84,14.89-9.75,38-13.25,41.6-5,5.24-3.34,0-6.68,7s-2,3-2,10-11.71,15.71-5,21,5.63,18.57,7.3,22.06,1.35,21.74-15.37,20S10,160.26,10,160.26s-3.54,3.9-8.78-4.53h0c.72,1.38,0,5,0,1.68L0,328.21H306s1.67-7,10-22.69,15.05-14,11.71-34.92,3.34-17.46-5-34.92-23.41-34.91-6.69-45.39,5-8.73,21.74-15.71,18.4-5.24,28.43-10.47,16.72-17.46,11.71-24.45-15.05-24.44,1.67-27.93,8.36,8.73,16.72,0,10-17.46,11.71-24.44,1.67-17.46,16.72-22.7S424.76,45.39,424.76,45.39Z"/></g></g></svg>