<svg xmlns="http://www.w3.org/2000/svg" viewBox="0 0 676.57 553.25"><defs><style>.cls-1{fill:#ebc862;}</style></defs><g id="Capa_2" data-name="Capa 2"><g id="Capa_1-2" data-name="Capa 1"><path class="cls-1" d="M122.18,158.15v10.21h1.7V307.8H297.34V318H299v8.43l40.81-1.63V450.65H450.39v8.5h1.7v53.29l122.44,40.81V488.06H583l93.53,1.65V418.34s-62.92-64.62-83.33-59.52-28.91-8.5-32.31-34-15.31-18.71-37.41-42.51-3.41-20.41-37.42-34-35.71-15.3-62.92-34-25.51-10.2-35.71-30.61-11.9-23.81-37.41-44.21,5.1-15.31-25.51-20.41-17,5.1-39.11-8.5-23.81-3.4-32.32-18.71,0-13.6-22.1-23.81-30.61-11.9-47.62-23.81-6.8-17-30.61-23.8-30.61-6.81-30.61-6.81L81.37,0s8.5,20.41,0,45.92S69.46,88.43,50.76,103.73s-32.31,17-40.82,35.72A165,165,0,0,1,0,158.15Z"/></g></g></svg>