<svg xmlns="http://www.w3.org/2000/svg" viewBox="0 0 846.89 549.04"><defs><style>.cls-1{fill:#bce4fa;}</style></defs><g id="Capa_2" data-name="Capa 2"><g id="Capa_1-2" data-name="Capa 1"><path class="cls-1" d="M846.89,327.3H751.65v67.14L617.31,349.12V288.7H506.77V166.17H464.26V147.7H289.1V0H165L0,201.42l406.44,1.67V399.47H577v40.77s16.16,5.32,19.75,8.86,3.59-3.54,10.78,0,10.77,8.86,10.77,12.41-9-5.32,0,8.86c5.75,9.07,9.28,7.26,10.14,9a99.9,99.9,0,0,0,10.95.71c11.9,0,34,3.36,44.21,6.71s5.1,3.36,15.31,5,8.5,1.68,22.1,6.71,39.12,48.68,39.12,48.68,13.6,0,30.61,1.68,13.6-8.4,11.9-11.75-3.4-11.75-10.2-16.79,5.1-13.42,5.1-20.14,1.7-6.71,5.1-13.43,1.7-1.67,6.8-6.71,15.31-48.68,17-52,5.1-8.39,5.1-13.43,0-5-1.7-13.43,0-10.07,6.8-21.82S846.89,327.3,846.89,327.3Z"/></g></g></svg>