<svg xmlns="http://www.w3.org/2000/svg" viewBox="0 0 338.41 243.18"><defs><style>.cls-1{fill:#7b563a;}</style></defs><g id="Capa_2" data-name="Capa 2"><g id="Capa_1-2" data-name="Capa 1"><path class="cls-1" d="M312.91,23.39C299.3,18.28,301,18.28,290.8,16.58s-5.1-1.7-15.31-5.11-32.31-6.82-44.21-6.82a97.35,97.35,0,0,1-10.94-.72c-.64-1.27,2.34-.6-1.05-3.93l-9.63,6c4.53,3.56.79-.76-1.77,11.29-3.36,15.76-3.31,5.3,0,15.81s1.12,9.07-7.26,9.07-10.21-8.52-13.61-1.71c-5.91,11.86-8.38,10.08,0,15.34S197.29,64.09,199,71.1s-14.55,12.71-16.23,14.46,0-8.75-1.68,0,5.06,8.76-3.32,10.51-15.09-15.76-13.41,0,1.67,5.26,1.67,19.27-3.33,8.9-13.38,15.9-15.09,7-13.41,12.26,8.74,4.27-11.79,15.62c-15.26,8.45-10,7-15.08,8.76s3.35-12.26-6.71,0-6.7,12.26-6.7,12.26H23.4l-1.68-12.26L.46,164.44l-.46.37v78.37H338.41V64.34C330.27,51.22,322.73,27.09,312.91,23.39Z"/></g></g></svg>