<svg xmlns="http://www.w3.org/2000/svg" viewBox="0 0 208.91 246.58"><defs><style>.cls-1{fill:#cce4a8;}</style></defs><g id="Capa_2" data-name="Capa 2"><g id="Capa_1-2" data-name="Capa 1"><path class="cls-1" d="M0,0H160.35V39.66s15.19,5.17,18.57,8.62,3.37-3.45,10.13,0,10.12,8.62,10.12,12.07-8.44-5.17,0,8.62S211,70.7,207.61,86.22s-6.75,6.9-3.37,17.24,3.37,8.62-5.07,8.62-10.12-12.07-15.19,0-11.81,13.8-3.37,19,11.81,3.45,13.5,10.35S184,151.74,182.29,153.47s0-8.62-1.68,0,3.37,8.62-5.07,10.34-15.19-15.52-13.5,0,1.69,5.18,1.69,19-5.07,13.8-15.19,20.69-15.19,6.9-13.51,12.07,6.75,1.73-8.44,10.35-10.12,6.9-15.19,8.62,3.38-12.07-6.75,0-6.75,12.07-6.75,12.07H28.69L27,234.51,0,231.06Z"/></g></g></svg>