<svg xmlns="http://www.w3.org/2000/svg" viewBox="0 0 261.89 226.18"><defs><style>.cls-1{fill:#cce4a8;}</style></defs><g id="Capa_2" data-name="Capa 2"><g id="Capa_1-2" data-name="Capa 1"><path class="cls-1" d="M261.89,142S254,137,244.38,123.47s-11.18-12-41.5-22.55-22.34-6-44.69-4.51-20.74-1.5-25.53-7.51-9.58-16.54-8-31.57-9.58-3-33.52-3-14.36,1.5-31.92-9-3.19-9-6.38-15S28.71,1.31,25.52,1.31L23.81,0s-2.35,4.85-6.27,12.36l3.4,58.44-.6-1.67c-.18,2-.4,4.05-.65,6.24l-.34,1.5s-3.2,32.68-9.58,43.2-8,12-6.38,19.55S5,147.13,5,151.64c0,3.33-3.43,5.49-5,8.21C2.59,161,5.38,163.54,8.5,165c6.63-5,15.31-6.81,15.31-6.81l10.2-6.8s1.63,13.36,1.63,19.53,7.85,0,17.26,3.09,11,6.17,12.56,10.8,0,0-1.57,6.17,11,9.26,15.69,18.52,4.71,3.09,17.27,13.89S122,211,131.37,203.29s15.7-12.35,34.53-20.06,23.54,0,23.54,0,28.25-13.89,48.65-27.78c11.21-7.63,18.61-11.52,23.8-13.49Z"/></g></g></svg>